# xmcd CD database file
#
# Track frame offsets:
#	150
#	23387
#	46522
#	66723
#	137897
#	185131
#
# Disc length: 2528 seconds
#
# Revision: 2
# Processed by: cddbd v1.5.1PL2 Copyright (c) Steve Scherf et al.
# Submitted via: CDex 1.51
#
DISCID=5009de06
DTITLE=Alain de Botton - Trost der Philosophie CD 02
DYEAR=2003
DGENRE=Hörbuch
TTITLE0=Epikur: Trost bei Geldmangel 01
TTITLE1=Epikur: Trost bei Geldmangel 02
TTITLE2=Epikur: Trost bei Geldmangel 03
TTITLE3=Epikur: Trost bei Geldmangel 04
TTITLE4=Epikur: Trost bei Geldmangel 05
TTITLE5=Epikur: Trost bei Geldmangel 06
EXTD=YEAR: 2003
EXTT0=
EXTT1=
EXTT2=
EXTT3=
EXTT4=
EXTT5=
PLAYORDER=
